<?xml version="1.0" standalone="no"?>
<!DOCTYPE svg PUBLIC "-//W3C//DTD SVG 20010904//EN"
 "http://www.w3.org/TR/2001/REC-SVG-20010904/DTD/svg10.dtd">
<svg version="1.0" xmlns="http://www.w3.org/2000/svg"
 width="2556.000000pt" height="2556.000000pt" viewBox="0 0 2556.000000 2556.000000"
 preserveAspectRatio="xMidYMid meet">
<metadata>
Created by potrace 1.11, written by Peter Selinger 2001-2013
</metadata>
<g transform="translate(0.000000,2556.000000) scale(0.100000,-0.100000)"
fill="#000000" stroke="none">
<path d="M2 15083 l3 -368 2830 0 2830 0 3 368 2 367 -2835 0 -2835 0 2 -367z"/>
<path d="M5989 15421 c-4 -153 1 -3469 5 -3536 9 -132 14 -179 25 -243 6 -31
12 -73 15 -92 3 -19 8 -46 11 -60 3 -14 7 -35 9 -48 3 -12 7 -26 11 -31 3 -5
7 -22 9 -38 2 -15 12 -53 22 -83 10 -30 18 -57 19 -60 13 -41 77 -196 86 -205
5 -5 9 -17 9 -27 0 -10 3 -18 8 -18 4 0 13 -15 21 -32 17 -40 110 -182 122
-186 5 -2 9 -9 9 -16 0 -34 243 -265 355 -337 78 -51 219 -128 245 -134 5 -2
54 -21 80 -32 8 -3 18 -7 23 -8 4 -2 9 -4 12 -5 3 -1 8 -3 13 -4 17 -5 158
-48 172 -53 8 -3 26 -7 40 -9 28 -5 62 -11 70 -14 7 -3 18 -5 85 -14 33 -5 69
-10 80 -12 125 -25 731 -25 774 0 3 2 30 6 59 10 30 3 95 16 145 27 51 11 99
22 107 24 8 2 15 4 15 5 0 1 7 3 15 5 126 27 423 168 506 240 6 6 22 17 34 25
63 42 184 158 245 235 22 27 48 59 57 69 10 11 20 28 24 38 3 10 9 18 12 18 4
0 16 17 27 38 11 20 23 39 26 42 3 3 18 30 33 60 15 30 31 62 36 70 69 119
157 434 185 665 4 33 10 74 13 90 3 17 7 847 9 1846 l4 1816 -566 0 -565 0 0
-56 c0 -31 -2 -823 -4 -1761 -1 -938 -5 -1716 -9 -1730 -4 -14 -9 -45 -12 -70
-2 -25 -6 -52 -8 -60 -35 -149 -49 -196 -79 -264 -82 -189 -226 -315 -421
-371 -33 -9 -71 -19 -85 -21 -25 -4 -224 -16 -247 -15 -51 2 -125 11 -164 21
-27 6 -55 13 -62 14 -22 5 -52 16 -82 32 -16 7 -33 14 -39 14 -18 0 -132 86
-170 128 -51 57 -115 159 -133 212 -1 3 -7 19 -14 35 -15 37 -48 158 -56 205
-3 19 -8 42 -10 50 -5 17 -14 108 -21 219 -3 42 -5 249 -4 461 0 212 1 390 1
395 0 31 0 943 0 955 0 8 0 224 0 480 0 256 0 472 0 480 0 8 -1 157 -2 331
l-1 316 -564 0 -564 0 -1 -26z"/>
<path d="M10493 15437 c-4 -6 -8 -936 -4 -993 1 -8 182 -12 659 -12 361 0 667
-1 680 -1 l22 -1 0 -2110 0 -2110 563 0 562 0 0 2110 c0 1871 2 2110 15 2111
8 0 313 1 677 1 602 1 663 2 667 17 2 9 4 237 3 506 l-2 490 -1918 1 c-1061 0
-1921 -4 -1924 -9z"/>
<path d="M15019 15446 c-1 -1 -2 -1179 -3 -2618 l-1 -2618 530 0 530 0 0 1744
c0 959 3 1743 6 1741 3 -2 11 -23 18 -47 7 -24 17 -52 21 -63 18 -43 41 -111
41 -120 1 -5 6 -19 11 -29 6 -11 26 -63 44 -115 37 -108 66 -190 119 -336 20
-55 38 -104 39 -110 2 -5 6 -18 10 -27 4 -9 9 -22 10 -30 2 -7 6 -20 9 -28 4
-8 29 -80 57 -160 29 -80 64 -181 80 -225 42 -118 110 -309 174 -490 150 -423
166 -464 178 -471 15 -9 69 -11 74 -3 3 5 10 6 17 4 24 -9 78 -12 82 -5 3 4
20 5 37 1 18 -4 47 -4 63 -1 17 3 50 3 75 -1 25 -4 46 -4 48 0 1 4 22 5 45 2
23 -4 56 -4 72 -1 17 3 50 3 75 -1 25 -4 46 -4 48 0 1 4 27 4 56 1 64 -7 78 1
96 55 7 22 19 54 27 72 7 17 13 35 13 39 0 5 11 39 25 76 14 38 37 101 51 141
14 39 28 79 31 87 3 8 7 20 9 25 1 6 19 55 39 110 43 118 85 236 89 250 6 22
18 51 27 67 5 10 9 27 9 37 0 11 4 22 9 25 4 3 11 20 15 37 3 17 12 45 20 62
8 18 35 91 60 162 98 284 118 341 123 355 4 8 7 17 7 20 1 3 13 37 28 75 14
39 52 142 83 230 30 88 59 167 62 175 3 8 7 17 8 20 6 25 47 140 50 140 2 0 4
-784 4 -1742 l0 -1743 559 -3 560 -2 0 2618 0 2618 -654 0 -653 0 -12 -30 c-6
-17 -13 -35 -14 -41 -4 -14 -53 -146 -64 -170 -18 -39 -55 -150 -52 -154 1 -2
-1 -7 -6 -10 -4 -3 -19 -37 -32 -76 -13 -38 -29 -83 -36 -100 -8 -16 -37 -95
-65 -175 -29 -80 -58 -158 -65 -175 -7 -16 -39 -100 -70 -185 -32 -85 -87
-234 -123 -330 -35 -96 -76 -204 -89 -240 -13 -36 -26 -72 -30 -80 -3 -8 -7
-19 -9 -25 -9 -33 -50 -141 -55 -145 -4 -3 -11 -21 -17 -40 -10 -36 -136 -379
-152 -415 -5 -11 -26 -69 -48 -128 l-39 -108 -27 73 c-15 40 -31 82 -36 93 -4
11 -18 47 -30 80 -12 33 -34 94 -50 135 -15 41 -37 100 -48 130 -11 30 -36 96
-55 145 -19 50 -42 110 -50 135 -9 25 -25 68 -35 95 -11 28 -29 77 -41 110
-22 60 -69 184 -98 260 -8 22 -22 58 -30 80 -9 22 -20 49 -25 60 -5 12 -10 27
-12 35 -2 8 -7 24 -11 35 -39 101 -55 143 -55 149 0 5 -6 22 -14 39 -8 18 -37
95 -66 172 -28 77 -64 174 -80 215 -16 41 -45 120 -66 175 -20 55 -48 129 -61
165 -14 36 -29 79 -35 95 -5 17 -16 44 -23 60 -7 17 -17 42 -20 58 -4 15 -10
28 -14 29 -6 1 -1300 5 -1302 4z"/>
<path d="M19907 15432 c-16 -3 -17 -33 -15 -370 l3 -367 2833 0 2832 0 -2 369
-3 369 -2816 1 c-1548 1 -2823 0 -2832 -2z"/>
<path d="M2056 13162 c-4 -3 -42 -5 -86 -5 l-80 2 0 -369 0 -369 1890 0 1890
0 0 368 -1 369 -69 0 c-38 0 -73 3 -79 6 -5 4 -12 3 -14 -1 -6 -10 -99 -9
-114 0 -7 4 -14 3 -17 -2 -5 -7 -49 -7 -104 0 -4 1 -10 0 -14 -1 -21 -5 -176
-2 -186 4 -6 3 -13 2 -16 -3 -5 -7 -49 -7 -104 0 -4 1 -11 0 -17 -1 -27 -5
-174 -2 -184 4 -6 4 -11 3 -11 -2 0 -7 -68 -8 -107 -1 -4 1 -10 1 -13 -1 -16
-6 -273 -4 -277 3 -2 4 -9 4 -15 0 -15 -8 -253 -7 -267 2 -6 3 -11 3 -11 -2 0
-4 -16 -8 -35 -8 -19 0 -35 4 -35 8 0 5 -6 5 -12 1 -15 -9 -203 -8 -218 1 -5
3 -10 2 -10 -2 0 -9 -132 -8 -156 1 -8 3 -14 2 -14 -2 0 -6 -175 -8 -190 -2
-3 1 -9 1 -15 0 -23 -5 -204 -2 -213 4 -6 3 -13 2 -16 -3 -5 -7 -49 -7 -104 0
-4 1 -11 0 -17 -1 -27 -5 -174 -2 -184 4 -6 4 -11 3 -11 -2 0 -7 -68 -8 -107
-1 -4 1 -11 0 -15 -1 -21 -5 -176 -2 -186 4 -6 3 -13 2 -16 -3 -5 -7 -49 -7
-104 0 -4 1 -11 0 -17 -1 -27 -5 -174 -2 -184 4 -6 4 -11 3 -11 -2 0 -9 -82
-7 -106 2 -6 2 -15 2 -18 -2z"/>
<path d="M19890 12782 l0 -367 1888 0 1887 0 3 368 2 367 -1890 0 -1890 0 0
-368z"/>
<path d="M3785 10862 c-3 -3 -5 -169 -5 -369 l0 -363 945 0 945 0 0 368 0 369
-940 0 c-517 0 -942 -3 -945 -5z"/>
<path d="M19890 10501 l0 -369 945 0 945 1 0 63 c1 35 1 174 1 309 0 135 0
272 -1 305 l0 60 -945 0 -945 0 0 -369z"/>
</g>
</svg>
